<svg xmlns="http://www.w3.org/2000/svg" width="800" height="420" viewBox="0 0 800 420">
  <rect width="800" height="420" fill="#0f0f0f"/>
  <!-- grid dots -->
  <pattern id="dots" width="40" height="40" patternUnits="userSpaceOnUse">
    <circle cx="20" cy="20" r="1" fill="#34d399" opacity="0.08"/>
  </pattern>
  <rect width="800" height="420" fill="url(#dots)"/>

  <!-- edges -->
  <line x1="400" y1="210" x2="220" y2="130" stroke="#34d399" stroke-width="1" opacity="0.25"/>
  <line x1="400" y1="210" x2="580" y2="130" stroke="#34d399" stroke-width="1" opacity="0.25"/>
  <line x1="400" y1="210" x2="180" y2="290" stroke="#34d399" stroke-width="1" opacity="0.15"/>
  <line x1="400" y1="210" x2="620" y2="290" stroke="#34d399" stroke-width="1" opacity="0.15"/>
  <line x1="220" y1="130" x2="120" y2="80" stroke="#6b7280" stroke-width="1" opacity="0.15"/>
  <line x1="220" y1="130" x2="160" y2="195" stroke="#6b7280" stroke-width="1" opacity="0.15"/>
  <line x1="580" y1="130" x2="680" y2="80" stroke="#6b7280" stroke-width="1" opacity="0.15"/>
  <line x1="580" y1="130" x2="640" y2="195" stroke="#6b7280" stroke-width="1" opacity="0.15"/>

  <!-- outer nodes (deps) — faded/crossed -->
  <circle cx="120" cy="80" r="14" fill="#111" stroke="#6b7280" stroke-width="1" opacity="0.4"/>
  <line x1="112" y1="72" x2="128" y2="88" stroke="#6b7280" stroke-width="1.5" opacity="0.4"/>
  <line x1="128" y1="72" x2="112" y2="88" stroke="#6b7280" stroke-width="1.5" opacity="0.4"/>
  <circle cx="160" cy="195" r="14" fill="#111" stroke="#6b7280" stroke-width="1" opacity="0.4"/>
  <line x1="152" y1="187" x2="168" y2="203" stroke="#6b7280" stroke-width="1.5" opacity="0.4"/>
  <line x1="168" y1="187" x2="152" y2="203" stroke="#6b7280" stroke-width="1.5" opacity="0.4"/>
  <circle cx="680" cy="80" r="14" fill="#111" stroke="#6b7280" stroke-width="1" opacity="0.4"/>
  <line x1="672" y1="72" x2="688" y2="88" stroke="#6b7280" stroke-width="1.5" opacity="0.4"/>
  <line x1="688" y1="72" x2="672" y2="88" stroke="#6b7280" stroke-width="1.5" opacity="0.4"/>
  <circle cx="640" cy="195" r="14" fill="#111" stroke="#6b7280" stroke-width="1" opacity="0.4"/>
  <line x1="632" y1="187" x2="648" y2="203" stroke="#6b7280" stroke-width="1.5" opacity="0.4"/>
  <line x1="648" y1="187" x2="632" y2="203" stroke="#6b7280" stroke-width="1.5" opacity="0.4"/>

  <!-- mid nodes -->
  <circle cx="220" cy="130" r="18" fill="#0f0f0f" stroke="#34d399" stroke-width="1" opacity="0.5"/>
  <circle cx="580" cy="130" r="18" fill="#0f0f0f" stroke="#34d399" stroke-width="1" opacity="0.5"/>
  <circle cx="180" cy="290" r="14" fill="#0f0f0f" stroke="#34d399" stroke-width="1" opacity="0.35"/>
  <circle cx="620" cy="290" r="14" fill="#0f0f0f" stroke="#34d399" stroke-width="1" opacity="0.35"/>

  <!-- center node -->
  <circle cx="400" cy="210" r="28" fill="#0f0f0f" stroke="#34d399" stroke-width="1.5" opacity="0.9"/>
  <circle cx="400" cy="210" r="22" fill="#34d399" opacity="0.08"/>
  <text x="400" y="215" text-anchor="middle" fill="#34d399" font-family="monospace" font-size="11" opacity="0.9">pkg</text>

  <!-- label -->
  <text x="400" y="370" text-anchor="middle" fill="#34d399" font-family="monospace" font-size="12" opacity="0.5">dependencies: {}</text>
</svg>
