<svg xmlns="http://www.w3.org/2000/svg" width="800" height="420" viewBox="0 0 800 420">
  <rect width="800" height="420" fill="#0f0f0f"/>
  <pattern id="dots3" width="40" height="40" patternUnits="userSpaceOnUse">
    <circle cx="20" cy="20" r="1" fill="#34d399" opacity="0.08"/>
  </pattern>
  <rect width="800" height="420" fill="url(#dots3)"/>

  <!-- file .tmp — left -->
  <rect x="160" y="150" width="160" height="120" rx="4" fill="#0f0f0f" stroke="#6b7280" stroke-width="1" opacity="0.6"/>
  <rect x="160" y="150" width="160" height="24" rx="4" fill="#1a1a1a" stroke="#6b7280" stroke-width="1" opacity="0.6"/>
  <rect x="284" y="150" width="36" height="24" rx="0" fill="#1a1a1a"/>
  <polygon points="284,150 320,150 320,174 284,174" fill="#0f0f0f" stroke="#6b7280" stroke-width="1" opacity="0.4"/>
  <text x="222" y="167" text-anchor="middle" fill="#6b7280" font-family="monospace" font-size="10" opacity="0.8">data.json.tmp</text>
  <!-- file lines -->
  <line x1="180" y1="196" x2="300" y2="196" stroke="#6b7280" stroke-width="1" opacity="0.2"/>
  <line x1="180" y1="210" x2="270" y2="210" stroke="#6b7280" stroke-width="1" opacity="0.2"/>
  <line x1="180" y1="224" x2="290" y2="224" stroke="#6b7280" stroke-width="1" opacity="0.2"/>
  <line x1="180" y1="238" x2="260" y2="238" stroke="#6b7280" stroke-width="1" opacity="0.2"/>
  <text x="240" y="258" text-anchor="middle" fill="#6b7280" font-family="monospace" font-size="9" opacity="0.5">write()</text>

  <!-- arrow -->
  <line x1="340" y1="210" x2="455" y2="210" stroke="#34d399" stroke-width="1.5" opacity="0.7"/>
  <polygon points="455,205 468,210 455,215" fill="#34d399" opacity="0.7"/>
  <text x="400" y="200" text-anchor="middle" fill="#34d399" font-family="monospace" font-size="9" opacity="0.7">rename()</text>
  <text x="400" y="232" text-anchor="middle" fill="#34d399" font-family="monospace" font-size="8" opacity="0.45">atomic</text>

  <!-- file final — right -->
  <rect x="480" y="150" width="160" height="120" rx="4" fill="#0f0f0f" stroke="#34d399" stroke-width="1" opacity="0.7"/>
  <rect x="480" y="150" width="160" height="24" rx="4" fill="#34d399" fill-opacity="0.1" stroke="#34d399" stroke-width="1" opacity="0.7"/>
  <rect x="604" y="150" width="36" height="24" rx="0" fill="#0f0f0f"/>
  <polygon points="604,150 640,150 640,174 604,174" fill="#34d399" fill-opacity="0.15" stroke="#34d399" stroke-width="1" opacity="0.5"/>
  <text x="534" y="167" text-anchor="middle" fill="#34d399" font-family="monospace" font-size="10" opacity="0.9">data.json</text>
  <line x1="500" y1="196" x2="620" y2="196" stroke="#34d399" stroke-width="1" opacity="0.2"/>
  <line x1="500" y1="210" x2="590" y2="210" stroke="#34d399" stroke-width="1" opacity="0.2"/>
  <line x1="500" y1="224" x2="610" y2="224" stroke="#34d399" stroke-width="1" opacity="0.2"/>
  <line x1="500" y1="238" x2="580" y2="238" stroke="#34d399" stroke-width="1" opacity="0.2"/>
  <text x="560" y="258" text-anchor="middle" fill="#34d399" font-family="monospace" font-size="9" opacity="0.6">✓ intact</text>

  <text x="400" y="370" text-anchor="middle" fill="#34d399" font-family="monospace" font-size="12" opacity="0.5">write · rename · done</text>
</svg>
